<?xml version="1.0" encoding="UTF-8"?>
<svg xmlns="http://www.w3.org/2000/svg"
     id="svg_2.16.840.1.113883.2.4.3.11.60.126.4.35"
     version="1.1"
     height="237"
     width="494"
     style="fill:white;stroke:black;stroke-width:0;fill-opacity: 1; stroke-opacity: 1;">
   <defs>
      <style type="text/css">
                            .sequenceLine {
                                fill:none;stroke:black;stroke-width:1px;stroke-linecap:butt;stroke-linejoin:miter;
                            }
                            .sequenceBarRect {
                                fill:AliceBlue;fill-rule:evenodd;stroke:black;stroke-width:0.2;stroke-linecap:butt;stroke-linejoin:miter;stroke-miterlimit:4;stroke-dasharray:none;
                            }
                            .actorBox {
                                fill:AliceBlue;fill-rule:evenodd;stroke:black;stroke-width:0.2;stroke-linecap:butt;stroke-linejoin:miter;stroke-miterlimit:4;stroke-dasharray:none;
                            }
                            .actorBox:hover {
                                fill:LightSkyBlue;
                            }
                            .actorBoxText {
                                fill:black;stroke:none;font-size:10px;font-weight:bold;text-align:middle;line-height:100%;text-anchor:middle;font-family: Verdana, Arial, sans-serif;
                            }
                            .transactionLineText {
                                fill:black;stroke:none;font-size:10px;font-variant:normal;font-weight:bold;font-stretch:normal;line-height:125%;writing-mode:lr-tb;text-anchor:middle;font-family: Verdana, Arial, sans-serif;
                            }
                            .Left {
                                 text-align: left; text-anchor: initial;
                            }
                            .Center {
                                 text-align: center; text-anchor: middle;
                            }
                        </style>
   </defs>
   <!--Service Name-->
   <text x="247"
         y="21"
         style="font-size:12px;font-weight:bold;text-align:start;line-height:125%;text-anchor:middle;fill:black;stroke:none;font-family: Verdana, Arial, sans-serif;fill-opacity: 1; stroke-opacity: 1;">Transactiegroep - Raadplegen</text>
   <g id="actorObjects">
      <!-- Actor box (header) - -->
      <g id="actor_2.16.840.1.113883.2.4.3.11.60.126.7.1">
         <rect x="21"
               y="31"
               height="50"
               width="102"
               class="actorBox"
               style="fill-opacity: 1; stroke-opacity: 1;"/>
         <text x="72"
               y="61"
               class="actorBoxText"
               style="fill-opacity: 1; stroke-opacity: 1;">Actor A</text>
      </g>
      <!-- Actor box (header) - -->
      <g id="actor_2.16.840.1.113883.2.4.3.11.60.126.7.2">
         <rect x="371"
               y="31"
               height="50"
               width="102"
               class="actorBox"
               style="fill-opacity: 1; stroke-opacity: 1;"/>
         <text x="422"
               y="61"
               class="actorBoxText"
               style="fill-opacity: 1; stroke-opacity: 1;">Actor B</text>
      </g>
   </g>
   <g id="sequenceLines">
      <path class="sequenceLine"
            style="fill-opacity: 1; stroke-opacity: 1;"
            d="m 72, 81 v 135"/>
      <path class="sequenceLine"
            style="fill-opacity: 1; stroke-opacity: 1;"
            d="m 422, 81 v 135"/>
   </g>
   <g id="sequenceBars"><!-- sequence bar client -->
      <rect x="67"
            y="131"
            height="75"
            width="10"
            class="sequenceBarRect"
            style="fill-opacity: 1; stroke-opacity: 1;"/>
      <g id="initiatingTransaction_d10e65017"><!-- Arrow text client to server -->
         <text x="242"
               y="141"
               class="transactionLineText Center"
               style="fill-opacity: 1; stroke-opacity: 1;">Raadplegen BgZ</text>
         <!-- Arrow line client to server -->
         <path d="m 77,151 h 330"
               style="fill:none;stroke:black;stroke-width:1px;stroke-linecap:butt;stroke-linejoin:miter;marker-end:none;fill-opacity: 1; stroke-opacity: 1;"/>
         <!-- Arrow head client to server -->
         <path d="m 407,146 0.2428,9.99706 c 3.8451,-1.75975 7.6902,-3.51949 11.5354,-5.27924 0,-0.002 0,-0.002 0,-0.002 0,0 0,0 -0,-0.002 -3.926,-1.57108 -7.852,-3.14216 -11.7781,-4.71324 z"
               style="fill:black;fill-rule:evenodd;stroke:none;fill-opacity: 1; stroke-opacity: 1;"/>
      </g>
      <!-- sequence bar server -->
      <rect x="417"
            y="131"
            height="75"
            width="10"
            class="sequenceBarRect"
            style="fill-opacity: 1; stroke-opacity: 1;"/>
      <g id="respondingTransaction_2.16.840.1.113883.2.4.3.11.60.126.7.1_d10e65023"><!-- Arrow text server to client -->
         <text x="252"
               y="176"
               class="transactionLineText Center"
               style="fill-opacity: 1; stroke-opacity: 1;">Beschikbaarstellen BgZ (ClinicalDocument)</text>
         <!-- Arrow line server to client -->
         <path d="m 87,186 h 330"
               style="fill:none;stroke:black;stroke-width:1px;stroke-linecap:butt;stroke-linejoin:miter;marker-end:none;fill-opacity: 1; stroke-opacity: 1;"/>
         <!-- Arrow head server to client -->
         <path d="m 87,191 0.4062,-9.99174 c -3.3774,1.28641 -6.7547,2.57283 -10.132,3.85925 0,0 0,0 0,0 -0.4815,0.18338 -0.9629,0.36676 -1.4444,0.55014 0,0 0,0 0,0 -0.076,0.0291 -0.153,0.0583 -0.2295,0.0874 0,0 0,0 0,0 0,0 0,0 0,0 -0.015,0.0176 -0.029,0.0231 -0.043,0.0246 0,0 0,0 0,0 -0.01,5.5e-4 -0.01,5.8e-4 -0.015,4.1e-4 -0,-6e-5 -0,-6e-5 -0,-6e-5 0,0 0,0 0,9e-5 0.01,2.6e-4 0.01,6.3e-4 0.015,0.002 0,0 0,0 0,0 0.014,0.003 0.028,0.009 0.041,0.028 0,0 0,0 0,0 0,0 0,0 0,0 0.074,0.0353 0.1478,0.0705 0.2216,0.10576 0.465,0.22185 0.93,0.44371 1.395,0.66556 3.2617,1.55631 6.5235,3.11262 9.7853,4.66892 z"
               style="fill:black;fill-rule:evenodd;stroke:none;fill-opacity: 1; stroke-opacity: 1;"/>
      </g>
   </g>
</svg>
