<?xml version="1.0" encoding="UTF-8"?>
<svg xmlns="http://www.w3.org/2000/svg"
     id="svg_2.16.840.1.113883.2.4.3.11.60.126.4.3"
     version="1.1"
     height="237"
     width="715"
     style="fill:white;stroke:black;stroke-width:0;fill-opacity: 1; stroke-opacity: 1;"><!--Service Name-->
   <text x="357.5"
         y="21"
         style="font-size:12px;font-weight:bold;text-align:start;line-height:125%;text-anchor:middle;fill:black;;stroke:none;font-family: Verdana, Arial, sans-serif;fill-opacity: 1; stroke-opacity: 1;">
      <desc>Title of scenario</desc>Transactiegroep - Aanmaken of bijwerken</text>
   <g id="client_objects"><!-- Client box (header) -->
      <g id="client_box">
         <rect x="37.5"
               y="31"
               height="50"
               width="96"
               onmouseover="this.style.fill='LightSkyBlue';"
               onmouseout="this.style.fill='AliceBlue';"
               style="fill:AliceBlue;fill-rule:evenodd;stroke:black;stroke-width:0.2;stroke-linecap:butt;stroke-linejoin:miter;stroke-miterlimit:4;stroke-dasharray:none;fill-opacity: 1; stroke-opacity: 1;"/>
         <text x="85.5"
               y="61"
               style="font-size:10px;font-weight:bold;text-align:middle;line-height:100%;text-anchor:middle;fill:black;stroke:none;font-family: Verdana, Arial, sans-serif;fill-opacity: 1; stroke-opacity: 1;">Client</text>
      </g>
      <!-- Client Box Sequence Line -->
      <path style="fill:none;stroke:black;stroke-width:1px;stroke-linecap:butt;stroke-linejoin:miter;fill-opacity: 1; stroke-opacity: 1;"
            d="m 85.5, 81 v 135"/>
   </g>
   <g id="server_objects"><!-- Server box (header) -->
      <g id="server_box">
         <rect x="581.5"
               y="31"
               height="50"
               width="96"
               onmouseover="this.style.fill='LightSkyBlue';"
               onmouseout="this.style.fill='AliceBlue';"
               style="fill:AliceBlue;fill-rule:evenodd;stroke:black;stroke-width:0.2;stroke-linecap:butt;stroke-linejoin:miter;stroke-miterlimit:4;stroke-dasharray:none;fill-opacity: 1; stroke-opacity: 1;"/>
         <text x="629.5"
               y="61"
               style="font-size:10px;font-weight:bold;text-align:middle;line-height:100%;text-anchor:middle;fill:black;stroke:none;font-family: Verdana, Arial, sans-serif;fill-opacity: 1; stroke-opacity: 1;">Server</text>
      </g>
      <!-- Server Box Sequence Line -->
      <path style="fill:none;stroke:black;stroke-width:1px;stroke-linecap:butt;stroke-linejoin:miter;fill-opacity: 1; stroke-opacity: 1;"
            d="m 629.5 , 81 v 135"/>
   </g>
   <g id="d10e64626"><!-- Client bar -->
      <rect x="80.5"
            y="131"
            height="75"
            width="10"
            style="fill:AliceBlue;stroke:black;stroke-width:0.5;stroke-miterlimit:4;stroke-dasharray:none;fill-opacity: 1; stroke-opacity: 1;"/>
      <!-- Server bar -->
      <rect x="624.5"
            y="131"
            height="75"
            width="10"
            style="fill:AliceBlue;fill-rule:evenodd;stroke:black;stroke-width:0.2;stroke-linecap:butt;stroke-linejoin:miter;stroke-miterlimit:4;stroke-dasharray:none;fill-opacity: 1; stroke-opacity: 1;"/>
      <!-- SOAP Action in pink background-color -->
      <g>
         <rect x="106.5"
               y="115"
               height="16"
               width="502"
               style="fill:#ffaaaa;fill-opacity: 1; stroke-opacity: 1;"/>
         <text x="357.5"
               y="126"
               style="font-size:10px;text-align:center;text-anchor:middle;line-height:125%;fill:black;stroke:none;font-family: Verdana, Arial, sans-serif;fill-opacity: 1; stroke-opacity: 1;">urn:hl7-org:v3/bgz2020-2.16.840.1.113883.2.4.3.11.60.126.4.3_ClinicalDocument</text>
      </g>
      <!-- Arrow, with head, and label -->
      <g id="clientToServer_d10e64626">
         <g id="initiatingTransaction_d10e64626"><!-- Arrow text client to server -->
            <text x="357.5"
                  y="146"
                  style="font-size:10px;font-variant:normal;font-weight:bold;font-stretch:normal;text-align:center;line-height:125%;writing-mode:lr-tb;text-anchor:middle;fill:black;stroke:none;font-family: Verdana, Arial, sans-serif;fill-opacity: 1; stroke-opacity: 1;">Aanmaken of bijwerken (ClinicalDocument)</text>
            <!-- Arrow line client to server -->
            <path d="m 90.5,151 h 534"
                  style="fill:none;stroke:black;stroke-width:1px;stroke-linecap:butt;stroke-linejoin:miter;marker-end:none"/>
            <!-- Arrow head client to server -->
            <path d="m 614.5,146 0.2428,9.99706 c 3.8451,-1.75975 7.6902,-3.51949 11.5354,-5.27924 0,-0.002 0,-0.002 0,-0.002 0,0 0,0 -0,-0.002 -3.926,-1.57108 -7.852,-3.14216 -11.7781,-4.71324 z"
                  style="fill:black;fill-rule:evenodd;stroke:none"/>
         </g>
         <g id="respondingTransaction_d10e64626"><!-- Arrow text server to client -->
            <text x="357.5"
                  y="181"
                  style="font-size:10px;font-variant:normal;font-weight:bold;font-stretch:normal;text-align:center;line-height:125%;writing-mode:lr-tb;text-anchor:middle;fill:black;stroke:none;font-family: Verdana, Arial, sans-serif;fill-opacity: 1; stroke-opacity: 1;">Aanmaken of bijwerken (ClinicalDocument)</text>
            <!-- Arrow line server to client -->
            <path d="m 90.5, 186 h 534"
                  style="fill:none;stroke:black;stroke-width:1px;stroke-linecap:butt;stroke-linejoin:miter;stroke-miterlimit:4;stroke-dasharray:none;marker-end:none;fill-opacity: 1; stroke-opacity: 1;"/>
            <!-- Arrow head server to client -->
            <path d="m 100.5,191 0.4062,-9.99174 c -3.3774,1.28641 -6.7547,2.57283 -10.132,3.85925 0,0 0,0 0,0 -0.4815,0.18338 -0.9629,0.36676 -1.4444,0.55014 0,0 0,0 0,0 -0.076,0.0291 -0.153,0.0583 -0.2295,0.0874 0,0 0,0 0,0 0,0 0,0 0,0 -0.015,0.0176 -0.029,0.0231 -0.043,0.0246 0,0 0,0 0,0 -0.01,5.5e-4 -0.01,5.8e-4 -0.015,4.1e-4 -0,-6e-5 -0,-6e-5 -0,-6e-5 0,0 0,0 0,9e-5 0.01,2.6e-4 0.01,6.3e-4 0.015,0.002 0,0 0,0 0,0 0.014,0.003 0.028,0.009 0.041,0.028 0,0 0,0 0,0 0,0 0,0 0,0 0.074,0.0353 0.1478,0.0705 0.2216,0.10576 0.465,0.22185 0.93,0.44371 1.395,0.66556 3.2617,1.55631 6.5235,3.11262 9.7853,4.66892 z"
                  style="fill:black;fill-rule:evenodd;stroke:none"/>
         </g>
      </g>
   </g>
</svg>
